<svg width="36" height="20" viewBox="0 0 36 20" fill="none" xmlns="http://www.w3.org/2000/svg">
<path fill-rule="evenodd" clip-rule="evenodd" d="M12.3299 0.669922C11.4199 0.669922 10.6699 1.42008 10.6699 2.33008V14.9199C10.6699 15.8099 11.7399 16.2601 12.3799 15.6201L13.7099 14.29C13.8899 14.11 14.1499 14 14.4099 14H25.6699C26.5799 14 27.3299 13.2501 27.3299 12.3301V2.33008C27.3299 1.42008 26.5799 0.669922 25.6699 0.669922H12.3299ZM12.3299 3.33008C12.3299 2.78008 12.7799 2.33008 13.3299 2.33008H24.6699C25.2199 2.33008 25.6699 2.78008 25.6699 3.33008V11.3301C25.6699 11.8901 25.2199 12.3301 24.6699 12.3301H13.5099C13.3799 12.3301 13.2599 12.38 13.1699 12.48C12.8599 12.78 12.3299 12.5699 12.3299 12.1299V3.33008ZM20.6699 9.83008C20.6699 9.37008 20.2899 9 19.8299 9H14.8299C14.3699 9 13.9999 9.37008 13.9999 9.83008C13.9999 10.2901 14.3699 10.6699 14.8299 10.6699H19.8299C20.2899 10.6699 20.6699 10.2901 20.6699 9.83008ZM13.9999 7.33008C13.9999 6.87008 14.3699 6.5 14.8299 6.5H23.1699C23.6299 6.5 23.9999 6.87008 23.9999 7.33008C23.9999 7.79008 23.6299 8.16992 23.1699 8.16992H14.8299C14.3699 8.16992 13.9999 7.79008 13.9999 7.33008ZM23.9999 4.83008C23.9999 4.37008 23.6299 4 23.1699 4H14.8299C14.3699 4 13.9999 4.37008 13.9999 4.83008C13.9999 5.29008 14.3699 5.66992 14.8299 5.66992H23.1699C23.6299 5.66992 23.9999 5.29008 23.9999 4.83008Z" fill="black" fill-opacity="0.54"/>
</svg>
