<svg width="38" height="20" viewBox="0 0 38 20" fill="none" xmlns="http://www.w3.org/2000/svg">
<path fill-rule="evenodd" clip-rule="evenodd" d="M12.3333 1.66669C11.4166 1.66669 10.675 2.41669 10.675 3.33335L10.668 15.9172C10.6675 16.8084 11.7449 17.2551 12.3751 16.6249L13.7071 15.2929C13.8946 15.1054 14.149 15 14.4142 15H25.6666C26.5833 15 27.3333 14.25 27.3333 13.3334V3.33335C27.3333 2.41669 26.5833 1.66669 25.6666 1.66669H12.3333ZM12.3333 4.33335C12.3333 3.78107 12.781 3.33335 13.3333 3.33335H24.6666C25.2189 3.33335 25.6666 3.78107 25.6666 4.33335V12.3334C25.6666 12.8856 25.2189 13.3334 24.6666 13.3334H13.5102C13.3809 13.3334 13.2569 13.3847 13.1655 13.4761C12.8584 13.7832 12.3333 13.5657 12.3333 13.1314V4.33335ZM20.6666 10.8334C20.6666 10.3731 20.2935 10 19.8333 10H14.8333C14.3731 10 14 10.3731 14 10.8334C14 11.2936 14.3731 11.6667 14.8333 11.6667H19.8333C20.2935 11.6667 20.6666 11.2936 20.6666 10.8334ZM14 8.33335C14 7.87312 14.3731 7.50002 14.8333 7.50002H23.1666C23.6269 7.50002 24 7.87312 24 8.33335C24 8.79359 23.6269 9.16669 23.1666 9.16669H14.8333C14.3731 9.16669 14 8.79359 14 8.33335ZM24 5.83335C24 5.37312 23.6269 5.00002 23.1666 5.00002H14.8333C14.3731 5.00002 14 5.37312 14 5.83335C14 6.29359 14.3731 6.66669 14.8333 6.66669H23.1666C23.6269 6.66669 24 6.29359 24 5.83335Z" fill="#70B7C0"/>
</svg>
