<svg width="55" height="55" viewBox="0 0 55 55" fill="none" xmlns="http://www.w3.org/2000/svg">
<path d="M49.6281 10.2809C49.3554 9.92928 48.8493 9.86526 48.4977 10.138C48.1461 10.4107 48.0822 10.9168 48.3548 11.2684C50.8302 14.4597 52.2545 18.369 52.4196 22.3763L41.6012 19.4775C42.0529 16.6107 42.2309 13.6986 42.1288 10.8098C42.0698 9.13769 41.9153 7.45676 41.6701 5.79409C43.1901 6.54787 44.6132 7.50306 45.8868 8.63227C46.2198 8.92747 46.7289 8.89675 47.0241 8.56395C47.3193 8.23095 47.2887 7.72177 46.9558 7.42668C44.8511 5.56077 42.3883 4.15452 39.7321 3.25809L40.5106 1.07689C40.6602 0.657841 40.4416 0.196896 40.0227 0.0473651C39.6036 -0.102166 39.1427 0.116222 38.9932 0.535273L38.1826 2.80649C29.0627 0.543545 19.5054 4.69023 14.8874 12.9343C14.8252 13.0498 14.767 13.1973 14.7794 13.3949L15.0649 17.5948C15.1195 18.3966 15.6777 19.075 16.454 19.2831L24.4101 21.4149C25.1741 21.6199 26.0071 21.3188 26.4571 20.6473L27.4913 19.1076L27.6171 20.9581C27.6717 21.7599 28.2299 22.4384 29.0062 22.6465L32.2058 23.5038L27.7003 40.3182L20.164 40.2964H20.1617C19.7178 40.2964 19.3574 40.6556 19.356 41.0998C19.3547 41.5447 19.7144 41.9065 20.1594 41.9077L35.9374 41.9533H35.9452C36.7341 41.9533 37.5028 41.6305 38.0552 41.0669L43.7336 35.2727C44.9053 34.077 46.6884 33.6462 48.2766 34.1759L50.0035 34.7515L39.2359 45.5935C38.7855 46.0472 38.1604 46.3073 37.5211 46.3073H6.33394C6.25241 45.083 6.59154 43.8912 7.47272 43.0131C8.20394 42.2843 9.17406 41.8834 10.2056 41.8834H10.2189L16.3989 41.906H16.4019C16.8455 41.906 17.2059 41.5472 17.2076 41.1032C17.2092 40.6583 16.8497 40.2963 16.4048 40.2946L10.2245 40.2721C8.75318 40.2665 7.37518 40.8352 6.33523 41.8718C5.02523 43.1776 4.72262 44.9687 4.72262 46.7907C4.72262 47.4127 5.22858 47.9187 5.85055 47.9187H7.78811L6.12146 51.5814C5.85194 52.1739 5.84281 52.819 6.04466 53.3888H1.75854C1.3136 53.3888 0.952881 53.7494 0.952881 54.1945C0.952881 54.6395 1.3136 55.0001 1.75854 55.0001H51.336C51.7809 55.0001 52.1417 54.6395 52.1417 54.1945C52.1417 53.7494 51.7809 53.3888 51.336 53.3888H43.7725C43.9743 52.819 43.9652 52.1737 43.6957 51.5813L41.1396 45.9635L51.696 35.3338C52.2802 34.7545 52.0259 33.7199 51.2522 33.4691L48.7861 32.6471C46.6175 31.9244 44.1826 32.5121 42.5827 34.1447L36.9043 39.9389C36.6532 40.1951 36.3038 40.3418 35.9453 40.3418H35.9418L29.367 40.3228L33.762 23.9206L36.962 24.778C37.7259 24.9832 38.5592 24.6818 39.0092 24.0104L40.0434 22.4707L40.1692 24.3213C40.2238 25.1231 40.782 25.8016 41.5583 26.0096L49.5142 28.1414C50.2782 28.3464 51.1114 28.0454 51.5614 27.3738L53.9085 23.8794C53.9778 23.7673 54.0455 23.6243 54.0454 23.4268C54.1061 18.7 52.5378 14.0319 49.6281 10.2809ZM8.32113 53.3888C8.20576 53.3888 8.09361 53.3643 7.9877 53.3162C7.58336 53.1322 7.40407 52.6533 7.5882 52.2486L9.55852 47.9186H11.3299L9.05525 52.9166C8.92473 53.2035 8.63663 53.3888 8.32113 53.3888ZM24.1986 53.3888H10.6106L13.1001 47.9187H25.664L24.1986 53.3888ZM25.8667 53.3888L27.3321 47.9187H36.7172L39.2067 53.3888H25.8667ZM42.229 52.2486C42.413 52.6534 42.2339 53.1323 41.8279 53.3168C41.7236 53.3645 41.6124 53.3888 41.4972 53.3888C41.1816 53.3888 40.8928 53.2031 40.762 52.9166L38.4381 47.8103C38.9651 47.6859 39.4654 47.4569 39.9032 47.1371L42.229 52.2486ZM25.1194 19.7486C25.0555 19.8439 24.9378 19.8879 24.827 19.8582L16.8709 17.7265C16.7601 17.6968 16.6803 17.5998 16.6725 17.4853L16.4635 14.41L26.838 17.1899L25.1194 19.7486ZM27.6293 15.7337L16.8193 12.8372C20.7213 6.65926 27.7401 3.24326 34.878 3.87995C33.6252 5.24667 32.4748 6.70932 31.4494 8.24642C29.8922 10.5801 28.6096 13.096 27.6293 15.7337ZM37.6716 23.1119C37.6075 23.2073 37.49 23.2514 37.3791 23.2216L29.4231 21.0898C29.3122 21.0602 29.2325 20.9632 29.2247 20.8487L29.0157 17.7734L39.3902 20.5533L37.6716 23.1119ZM40.0356 19.058L29.193 16.1527C30.123 13.684 31.3301 11.3286 32.7898 9.14081C33.9759 7.36309 35.3369 5.68957 36.8354 4.15731C37.8822 4.36055 38.917 4.65489 39.9166 5.03237C40.2465 6.95886 40.4499 8.91898 40.5187 10.8667C40.6149 13.596 40.452 16.3472 40.0356 19.058ZM50.2237 26.4753C50.1596 26.5706 50.0421 26.6147 49.9311 26.585L41.9752 24.4532C41.8643 24.4236 41.7845 24.3266 41.7768 24.212L41.5677 21.1369L51.9423 23.9167L50.2237 26.4753Z" fill="#BAFF99"/>
</svg>
