<svg width="57" height="20" viewBox="0 0 57 20" fill="none" xmlns="http://www.w3.org/2000/svg">
<path d="M20 2.7C20 1.20883 21.2088 0 22.7 0H23.1304V18H22.7C21.2088 18 20 16.7912 20 15.3V2.7Z" fill="#70B7C0"/>
<path fill-rule="evenodd" clip-rule="evenodd" d="M24.6957 18V0H35.3C36.7912 0 38 1.20883 38 2.7V15.3C38 16.7912 36.7912 18 35.3 18H24.6957ZM31.3479 9C32.4284 9 33.3044 8.16053 33.3044 7.125C33.3044 6.08947 32.4284 5.25 31.3479 5.25C30.2673 5.25 29.3913 6.08947 29.3913 7.125C29.3913 8.16053 30.2673 9 31.3479 9ZM26.261 16.81C26.2609 16.8316 26.2609 16.8533 26.2609 16.875C26.2609 16.8924 26.2659 16.9058 26.2759 16.9155C26.3269 17.1081 26.5023 17.25 26.7109 17.25H35.9848C36.147 17.25 36.2892 17.1641 36.3684 17.0354C36.4121 17.0009 36.4348 16.9488 36.4348 16.875C36.4348 16.8533 36.4348 16.8316 36.4347 16.81C36.4348 16.8067 36.4348 16.8033 36.4348 16.8V16.65C36.4348 16.6288 36.4341 16.6078 36.4326 16.587C36.3571 11.625 34.3167 9.75 31.3478 9.75C28.379 9.75 26.3386 11.625 26.2631 16.587C26.2616 16.6078 26.2609 16.6288 26.2609 16.65V16.8C26.2609 16.8033 26.2609 16.8067 26.261 16.81Z" fill="#70B7C0"/>
</svg>
