<svg width="54" height="20" viewBox="0 0 54 20" fill="none" xmlns="http://www.w3.org/2000/svg">
<path d="M19.1699 2.69995C19.1699 1.20995 20.3799 0 21.8699 0H22.2999V18H21.8699C20.3799 18 19.1699 16.79 19.1699 15.3V2.69995Z" fill="black" fill-opacity="0.54"/>
<path fill-rule="evenodd" clip-rule="evenodd" d="M23.8699 18V0H34.47C35.96 0 37.1699 1.20995 37.1699 2.69995V15.3C37.1699 16.79 35.96 18 34.47 18H23.8699ZM30.5199 9C31.5999 9 32.47 8.16012 32.47 7.12012C32.47 6.09012 31.5999 5.25 30.5199 5.25C29.4399 5.25 28.5599 6.09012 28.5599 7.12012C28.5599 8.16012 29.4399 9 30.5199 9ZM25.4299 16.8101C25.4299 16.8301 25.4299 16.8499 25.4299 16.8799C25.4299 16.8899 25.44 16.9099 25.45 16.9199C25.5 17.1099 25.6699 17.25 25.8799 17.25H35.1499C35.3199 17.25 35.4599 17.16 35.5399 17.04C35.5799 17 35.6 16.9499 35.6 16.8799C35.6 16.8499 35.6 16.8301 35.6 16.8101V16.8V16.6499C35.6 16.6299 35.6 16.6101 35.6 16.5901C35.53 11.6201 33.4899 9.75 30.5199 9.75C27.5499 9.75 25.5099 11.6201 25.4299 16.5901C25.4299 16.6101 25.4299 16.6299 25.4299 16.6499V16.8V16.8101Z" fill="black" fill-opacity="0.54"/>
</svg>
