<svg width="19" height="20" viewBox="0 0 19 20" fill="none" xmlns="http://www.w3.org/2000/svg">
<path fill-rule="evenodd" clip-rule="evenodd" d="M10 0C7.79 0 6 1.79 6 4C6 6.21 7.79 8 10 8C12.21 8 14 6.21 14 4C14 1.79 12.21 0 10 0ZM12.1 4C12.1 2.84 11.16 1.8999 10 1.8999C8.84 1.8999 7.90002 2.84 7.90002 4C7.90002 5.16 8.84 6.1001 10 6.1001C11.16 6.1001 12.1 5.16 12.1 4ZM16.1 13C16.1 12.36 12.97 10.8999 10 10.8999C7.03 10.8999 3.90002 12.36 3.90002 13V14.1001H16.1V13ZM2 13C2 10.34 7.33 9 10 9C12.67 9 18 10.34 18 13V16H2V13Z" fill="black" fill-opacity="0.54"/>
</svg>
