<svg width="60" height="34" viewBox="0 0 60 34" fill="none" xmlns="http://www.w3.org/2000/svg">
<path d="M10.8293 25.1294C9.4245 25.1294 8.28149 26.2723 8.28149 27.6772C8.28149 29.082 9.42438 30.225 10.8293 30.225C12.2342 30.225 13.377 29.0821 13.377 27.6772C13.3769 26.2723 12.234 25.1294 10.8293 25.1294ZM10.8293 28.461C10.3971 28.461 10.0454 28.1094 10.0454 27.6771C10.0454 27.2448 10.397 26.8932 10.8293 26.8932C11.2615 26.8932 11.6131 27.2448 11.6131 27.6771C11.613 28.1094 11.2614 28.461 10.8293 28.461Z" fill="#BAFF99"/>
<path d="M49.474 25.1294C48.0693 25.1294 46.9263 26.2723 46.9263 27.6772C46.9263 29.082 48.0692 30.225 49.474 30.225C50.8789 30.225 52.0218 29.0821 52.0218 27.6772C52.0218 26.2723 50.8788 25.1294 49.474 25.1294ZM49.474 28.461C49.0419 28.461 48.6902 28.1094 48.6902 27.6771C48.6902 27.2448 49.0418 26.8932 49.474 26.8932C49.9063 26.8932 50.2579 27.2448 50.2579 27.6771C50.2579 28.1094 49.9062 28.461 49.474 28.461Z" fill="#BAFF99"/>
<path d="M57.7428 20.1623V20.1563V12.1684C57.7428 11.1676 57.475 10.1824 56.9686 9.31923L55.9459 7.57639C55.6993 7.15623 55.1588 7.01535 54.7389 7.26218C54.3188 7.50865 54.1781 8.04911 54.4247 8.46915L55.4474 10.212C55.7952 10.8048 55.979 11.4812 55.979 12.1685V12.3036H54.2081C53.1877 12.3036 52.3576 13.1337 52.3576 14.1541V19.1878C52.3576 20.2081 53.1877 21.0382 54.2081 21.0382H55.9865C56.0408 21.4733 56.4112 21.8102 56.861 21.8102H56.9021C57.6378 21.8102 58.2362 22.4086 58.2362 23.1443V24.5733H54.6942C53.633 22.7955 51.6908 21.6017 49.4741 21.6017C47.2575 21.6017 45.3152 22.7955 44.254 24.5733H35.392L36.4937 22.1161C36.615 21.8457 36.6765 21.5582 36.6765 21.2618V14.0675H42.5713C43.0584 14.0675 43.4532 13.6726 43.4532 13.1856C43.4532 12.6985 43.0584 12.3036 42.5713 12.3036H38.4408V5.53909H48.1172L48.11 12.3036H46.3298C45.8427 12.3036 45.4479 12.6985 45.4479 13.1856C45.4479 13.6726 45.8427 14.0675 46.3298 14.0675H48.11C49.0868 14.0675 49.8815 13.2728 49.8815 12.2961V5.23064C49.8815 4.42995 49.2301 3.77707 48.4212 3.77519H27.8984C27.5422 3.77519 27.198 3.90396 26.9294 4.13773L17.2949 12.5202C17.0174 12.7618 16.9188 13.1501 17.0477 13.4946C17.1766 13.8392 17.5058 14.0675 17.8737 14.0675H34.9123V21.2618C34.9123 21.3079 34.9028 21.3524 34.884 21.3944L33.4588 24.5733H23.4054C22.9183 24.5733 22.5234 24.9682 22.5234 25.4552C22.5234 25.9423 22.9183 26.3372 23.4054 26.3372H43.5492C43.4516 26.7686 43.3984 27.2167 43.3984 27.6773C43.3984 27.8251 43.4056 27.9711 43.4161 28.1164H16.8871C16.8975 27.9711 16.9047 27.8251 16.9047 27.6773C16.9047 27.2168 16.8514 26.7686 16.754 26.3372H19.647C20.1341 26.3372 20.5289 25.9423 20.5289 25.4552C20.5289 24.9682 20.1341 24.5733 19.647 24.5733H16.0492C15.4235 23.525 14.4912 22.6807 13.3769 22.1637V13.5909L26.0335 2.57903C26.4543 2.21285 26.9934 2.01118 27.5512 2.01118H48.4211C49.7864 2.01118 51.064 2.74272 51.7551 3.9203L52.5199 5.2237C52.7664 5.64375 53.3067 5.78439 53.727 5.53803C54.147 5.29155 54.2878 4.75109 54.0413 4.33093L53.2765 3.02753C52.27 1.31256 50.4096 0.247162 48.4212 0.247162H27.5514C26.5678 0.247162 25.6175 0.602646 24.8758 1.24823L12.1651 12.3072H6.19563C2.77931 12.3073 0 15.0866 0 18.5029V27.9794C0 29.0275 0.852668 29.8802 1.90077 29.8802H5.16892C6.0531 32.1439 8.25621 33.7527 10.8293 33.7527C13.4023 33.7527 15.6054 32.1441 16.4896 29.8802H43.8138C44.698 32.1439 46.9011 33.7527 49.4741 33.7527C52.0473 33.7527 54.2504 32.1441 55.1346 29.8802H58.0936C59.1449 29.8802 60.0001 29.0249 60.0001 27.9737V23.1443C60 21.7273 59.0438 20.5295 57.7428 20.1623ZM54.208 14.0674H55.9789V15.7889H54.1215V14.154C54.1215 14.1063 54.1603 14.0674 54.208 14.0674ZM54.1215 19.1878V17.5529H55.9789V19.2743H54.208C54.1603 19.2743 54.1215 19.2355 54.1215 19.1878ZM34.912 5.53897H36.6769V12.3035H34.912V5.53897ZM28.0061 5.53897H33.1482V12.3035H20.2312L28.0061 5.53897ZM11.613 14.0712V21.6539C11.3562 21.6206 11.0949 21.6017 10.8291 21.6017C8.61075 21.6017 6.66706 22.7975 5.60649 24.5778C5.57732 24.5748 5.54781 24.5733 5.51794 24.5733H1.7639V20.1144H4.16256C5.62977 20.1144 6.82334 18.9207 6.82334 17.4535C6.82334 15.9863 5.62977 14.7927 4.16256 14.7927H3.77638C4.47254 14.3373 5.30333 14.0713 6.19563 14.0713H11.613V14.0712ZM4.16256 16.5564C4.65716 16.5564 5.05944 16.9588 5.05944 17.4533C5.05944 17.9479 4.65704 18.3503 4.16256 18.3503H1.76778C1.78965 17.7087 1.94781 17.1012 2.21534 16.5564H4.16256ZM1.90077 28.1163C1.82528 28.1163 1.7639 28.0549 1.7639 27.9794V26.3371H4.90446C4.80685 26.7685 4.7537 27.2166 4.7537 27.6772C4.7537 27.825 4.76087 27.971 4.77134 28.1163H1.90077ZM10.8293 31.9887C8.45189 31.9887 6.5176 30.0545 6.5176 27.677C6.5176 25.2995 8.45177 23.3654 10.8293 23.3654C13.2068 23.3654 15.1409 25.2995 15.1409 27.677C15.1409 30.0545 13.2066 31.9887 10.8293 31.9887ZM49.4741 31.9887C47.0967 31.9887 45.1625 30.0545 45.1625 27.677C45.1625 25.2995 47.0966 23.3654 49.4741 23.3654C51.8516 23.3654 53.7858 25.2995 53.7858 27.677C53.7858 30.0545 51.8515 31.9887 49.4741 31.9887ZM58.0935 28.1163H55.5319C55.5424 27.971 55.5496 27.825 55.5496 27.6772C55.5496 27.2167 55.4963 26.7685 55.3988 26.3371H58.2361V27.9736C58.2361 28.0523 58.1721 28.1163 58.0935 28.1163Z" fill="#BAFF99"/>
<path d="M32.6379 17.2114C33.1249 17.2114 33.5198 16.8165 33.5198 16.3295C33.5198 15.8424 33.1249 15.4475 32.6379 15.4475H30.943C30.4559 15.4475 30.061 15.8424 30.061 16.3295C30.061 16.8165 30.4559 17.2114 30.943 17.2114H32.6379Z" fill="#BAFF99"/>
</svg>
