<svg width="100" height="106" viewBox="0 0 100 106" fill="none" xmlns="http://www.w3.org/2000/svg">
<path d="M5 1.5H95C96.933 1.5 98.5 3.067 98.5 5V101C98.5 102.933 96.933 104.5 95 104.5H5C3.067 104.5 1.5 102.933 1.5 101V5C1.5 3.067 3.067 1.5 5 1.5Z" stroke="#BAFF99" stroke-width="3"/>
<path d="M28.3044 77.84H33.2844C34.191 77.84 34.9377 77.9667 35.5244 78.22C36.111 78.46 36.571 78.7733 36.9044 79.16C37.251 79.5333 37.491 79.96 37.6244 80.44C37.7577 80.9067 37.8244 81.36 37.8244 81.8C37.8244 82.24 37.7577 82.7 37.6244 83.18C37.491 83.6467 37.251 84.0733 36.9044 84.46C36.571 84.8333 36.111 85.1467 35.5244 85.4C34.9377 85.64 34.191 85.76 33.2844 85.76H30.2244V92H28.3044V77.84ZM30.2244 84.08H32.7444C33.1177 84.08 33.4844 84.0533 33.8444 84C34.2177 83.9333 34.5444 83.82 34.8244 83.66C35.1177 83.5 35.351 83.2733 35.5244 82.98C35.6977 82.6733 35.7844 82.28 35.7844 81.8C35.7844 81.32 35.6977 80.9333 35.5244 80.64C35.351 80.3333 35.1177 80.1 34.8244 79.94C34.5444 79.78 34.2177 79.6733 33.8444 79.62C33.4844 79.5533 33.1177 79.52 32.7444 79.52H30.2244V84.08ZM39.7398 83.68C40.2465 83.2133 40.8332 82.8667 41.4998 82.64C42.1665 82.4 42.8332 82.28 43.4998 82.28C44.1932 82.28 44.7865 82.3667 45.2798 82.54C45.7865 82.7133 46.1998 82.9467 46.5198 83.24C46.8398 83.5333 47.0732 83.8733 47.2198 84.26C47.3798 84.6333 47.4598 85.0267 47.4598 85.44V90.28C47.4598 90.6133 47.4665 90.92 47.4798 91.2C47.4932 91.48 47.5132 91.7467 47.5398 92H45.9398C45.8998 91.52 45.8798 91.04 45.8798 90.56H45.8398C45.4398 91.1733 44.9665 91.6067 44.4198 91.86C43.8732 92.1133 43.2398 92.24 42.5198 92.24C42.0798 92.24 41.6598 92.18 41.2598 92.06C40.8598 91.94 40.5065 91.76 40.1998 91.52C39.9065 91.28 39.6732 90.9867 39.4998 90.64C39.3265 90.28 39.2398 89.8667 39.2398 89.4C39.2398 88.7867 39.3732 88.2733 39.6398 87.86C39.9198 87.4467 40.2932 87.1133 40.7598 86.86C41.2398 86.5933 41.7932 86.4067 42.4198 86.3C43.0598 86.18 43.7398 86.12 44.4598 86.12H45.7798V85.72C45.7798 85.48 45.7332 85.24 45.6398 85C45.5465 84.76 45.4065 84.5467 45.2198 84.36C45.0332 84.16 44.7998 84.0067 44.5198 83.9C44.2398 83.78 43.9065 83.72 43.5198 83.72C43.1732 83.72 42.8665 83.7533 42.5998 83.82C42.3465 83.8867 42.1132 83.9733 41.8998 84.08C41.6865 84.1733 41.4932 84.2867 41.3198 84.42C41.1465 84.5533 40.9798 84.68 40.8198 84.8L39.7398 83.68ZM44.8198 87.44C44.3932 87.44 43.9532 87.4667 43.4998 87.52C43.0598 87.56 42.6532 87.6467 42.2798 87.78C41.9198 87.9133 41.6198 88.1 41.3798 88.34C41.1532 88.58 41.0398 88.8867 41.0398 89.26C41.0398 89.8067 41.2198 90.2 41.5798 90.44C41.9532 90.68 42.4532 90.8 43.0798 90.8C43.5732 90.8 43.9932 90.72 44.3398 90.56C44.6865 90.3867 44.9665 90.1667 45.1798 89.9C45.3932 89.6333 45.5465 89.34 45.6398 89.02C45.7332 88.6867 45.7798 88.36 45.7798 88.04V87.44H44.8198ZM50.0709 82.52H51.8709V83.98H51.9109C52.0309 83.7267 52.1909 83.5 52.3909 83.3C52.5909 83.0867 52.8109 82.9067 53.0509 82.76C53.3043 82.6133 53.5776 82.5 53.8709 82.42C54.1643 82.3267 54.4576 82.28 54.7509 82.28C55.0443 82.28 55.3109 82.32 55.5509 82.4L55.4709 84.34C55.3243 84.3 55.1776 84.2667 55.0309 84.24C54.8843 84.2133 54.7376 84.2 54.5909 84.2C53.7109 84.2 53.0376 84.4467 52.5709 84.94C52.1043 85.4333 51.8709 86.2 51.8709 87.24V92H50.0709V82.52ZM62.5533 84.08H59.9733V88.38C59.9733 88.6467 59.9799 88.9133 59.9933 89.18C60.0066 89.4333 60.0533 89.6667 60.1333 89.88C60.2266 90.08 60.3599 90.2467 60.5333 90.38C60.7199 90.5 60.9866 90.56 61.3333 90.56C61.5466 90.56 61.7666 90.54 61.9933 90.5C62.2199 90.46 62.4266 90.3867 62.6133 90.28V91.92C62.3999 92.04 62.1199 92.12 61.7733 92.16C61.4399 92.2133 61.1799 92.24 60.9933 92.24C60.2999 92.24 59.7599 92.1467 59.3733 91.96C58.9999 91.76 58.7199 91.5067 58.5333 91.2C58.3599 90.8933 58.2533 90.5533 58.2133 90.18C58.1866 89.7933 58.1733 89.4067 58.1733 89.02V84.08H56.0933V82.52H58.1733V79.86H59.9733V82.52H62.5533V84.08ZM63.7356 82.52H65.8156L68.6356 89.92H68.6756L71.3556 82.52H73.2956L68.7956 94.04C68.6356 94.4533 68.469 94.8267 68.2956 95.16C68.1223 95.5067 67.9156 95.8 67.6756 96.04C67.4356 96.28 67.1423 96.4667 66.7956 96.6C66.4623 96.7333 66.049 96.8 65.5556 96.8C65.289 96.8 65.0156 96.78 64.7356 96.74C64.469 96.7133 64.209 96.6467 63.9556 96.54L64.1756 94.9C64.5356 95.0467 64.8956 95.12 65.2556 95.12C65.5356 95.12 65.769 95.08 65.9556 95C66.1556 94.9333 66.3223 94.8267 66.4556 94.68C66.6023 94.5467 66.7223 94.3867 66.8156 94.2C66.909 94.0133 67.0023 93.8 67.0956 93.56L67.6756 92.06L63.7356 82.52Z" fill="#BAFF99"/>
<g clip-path="url(#clip0)">
<path d="M26.3354 37.1663C26.3975 37.1825 26.4605 37.1903 26.5231 37.1903C26.7201 37.1903 26.9123 37.1122 27.0544 36.9684L27.0976 36.9242C27.3663 36.6554 27.3873 36.2327 27.1606 35.9397C25.4464 29.3947 27.0435 22.8813 31.4623 18.4625C34.9245 15.0001 39.6866 13.2439 44.8707 13.5217C50.0851 13.7993 55.0992 16.0948 58.9893 19.9849C59.3387 20.3345 59.6864 20.7058 60.0227 21.0889C60.2947 21.3987 60.7667 21.4296 61.0764 21.1574C61.3862 20.8854 61.417 20.4135 61.1449 20.1037C60.7875 19.6965 60.4175 19.3013 60.0454 18.929C55.8941 14.7778 50.5332 12.3278 44.9502 12.0304C39.3389 11.732 34.1722 13.6406 30.4063 17.4065C27.9772 19.8356 26.2806 22.9275 25.5 26.3479C24.746 29.6515 24.8511 33.2115 25.8037 36.6434C25.8749 36.9 26.0775 37.0993 26.3354 37.1663V37.1663Z" fill="#BAFF99"/>
<path d="M74.9333 54.6783C74.6934 53.3427 73.8137 52.2077 72.5802 51.642L69.4784 50.2197L67.7739 48.5153C67.4824 48.2238 67.0096 48.2237 66.718 48.5154C66.4264 48.807 66.4264 49.2798 66.7181 49.5713L68.5174 51.3705C68.5801 51.4332 68.6535 51.4843 68.7341 51.5212L71.9579 52.9994C72.7589 53.3667 73.3078 54.075 73.4635 54.9423C73.6192 55.8096 73.3512 56.6644 72.7281 57.2875L70.286 59.7295C69.6629 60.3527 68.8079 60.6208 67.9409 60.4649C67.0735 60.3092 66.3654 59.7604 65.998 58.9593L64.5198 55.7356C64.4828 55.6549 64.4318 55.5816 64.369 55.5187L58.8501 49.9999C58.5066 49.6561 57.9781 49.5964 57.5648 49.8544C55.1725 51.3494 52.444 52.2133 49.5894 52.4303L65.4247 36.5949C65.2083 39.4306 64.3548 42.163 62.8533 44.5661C62.5948 44.9792 62.6545 45.5078 62.9982 45.8515L64.468 47.3212C64.6138 47.4669 64.8049 47.5398 64.996 47.5398C65.187 47.5398 65.3782 47.4669 65.524 47.3211C65.8156 47.0295 65.8156 46.5567 65.5239 46.2652L64.308 45.0494C68.2391 38.4705 67.7953 29.7478 63.1427 22.7173C62.915 22.3734 62.4517 22.279 62.1079 22.5066C61.7639 22.7342 61.6697 23.1974 61.8972 23.5414C64.1364 26.9249 65.3332 30.7216 65.467 34.4409L47.436 52.4715C45.4609 52.3984 43.4516 52.0246 41.4736 51.3411C41.0842 51.2066 40.6588 51.4132 40.5241 51.8031C40.3894 52.1927 40.5962 52.6179 40.986 52.7526C46.9023 54.7971 53.0982 54.2681 58.0478 51.3094L63.2184 56.4799L64.6406 59.5817C65.2063 60.8152 66.3413 61.6949 67.6768 61.9347C67.9207 61.9785 68.1658 62 68.4093 62C69.499 61.9999 70.5577 61.5697 71.342 60.7855L73.784 58.3435C74.7434 57.3839 75.1731 56.0138 74.9333 54.6783Z" fill="#BAFF99"/>
<path d="M40.1569 37.9799C39.3966 37.2197 38.5112 36.618 37.5251 36.1918C37.1467 36.028 36.707 36.2024 36.5435 36.5808C36.3797 36.9594 36.5539 37.3989 36.9325 37.5624C37.7449 37.9137 38.4744 38.4095 39.1008 39.0359C41.8283 41.7633 41.8283 46.2011 39.1009 48.9285C37.737 50.2924 35.946 50.9742 34.1544 50.9741C32.3634 50.9739 30.5716 50.2921 29.2081 48.9286C26.4806 46.2011 26.4806 41.7632 29.2081 39.0359C30.5177 37.7262 32.2596 36.999 34.1132 36.9881C34.5257 36.9857 34.8579 36.6494 34.8555 36.237C34.8531 35.8262 34.5193 35.4947 34.1089 35.4947C34.1074 35.4947 34.1059 35.4947 34.1044 35.4947C31.8553 35.508 29.7415 36.3906 28.1521 37.9799C24.8425 41.2896 24.8425 46.6748 28.1522 49.9846C29.8069 51.6394 31.9807 52.4668 34.1544 52.4668C36.3281 52.4668 38.502 51.6394 40.1568 49.9845C43.4665 46.6748 43.4665 41.2897 40.1569 37.9799V37.9799Z" fill="#BAFF99"/>
</g>
<defs>
<clipPath id="clip0">
<rect width="50" height="50" fill="white" transform="translate(25 12)"/>
</clipPath>
</defs>
</svg>
