<svg width="60" height="60" viewBox="0 0 60 60" fill="none" xmlns="http://www.w3.org/2000/svg">
<rect width="60" height="60" rx="20" fill="#AAE88C"/>
<path fill-rule="evenodd" clip-rule="evenodd" d="M26.7498 20.25H33.2498L35.2323 22.4167H38.6665C39.8582 22.4167 40.8332 23.3917 40.8332 24.5833V37.5833C40.8332 38.775 39.8582 39.75 38.6665 39.75H21.3332C20.1415 39.75 19.1665 38.775 19.1665 37.5833V24.5833C19.1665 23.3917 20.1415 22.4167 21.3332 22.4167H24.7673L26.7498 20.25ZM34.279 24.5833L32.2965 22.4167H27.7032L25.7207 24.5833H21.3332V37.5833H38.6665V24.5833H34.279ZM29.9998 27.8333C31.7873 27.8333 33.2498 29.2958 33.2498 31.0833C33.2498 32.8708 31.7873 34.3333 29.9998 34.3333C28.2123 34.3333 26.7498 32.8708 26.7498 31.0833C26.7498 29.2958 28.2123 27.8333 29.9998 27.8333ZM24.5832 31.0833C24.5832 28.0933 27.0098 25.6667 29.9998 25.6667C32.9898 25.6667 35.4165 28.0933 35.4165 31.0833C35.4165 34.0733 32.9898 36.5 29.9998 36.5C27.0098 36.5 24.5832 34.0733 24.5832 31.0833Z" fill="#092040"/>
</svg>
