<svg width="25" height="25" viewBox="0 0 25 25" fill="none" xmlns="http://www.w3.org/2000/svg">
<path fill-rule="evenodd" clip-rule="evenodd" d="M20.3149 12.5C20.3149 12.8542 20.2836 13.1875 20.242 13.5208L22.4399 15.2396C22.6378 15.3958 22.6899 15.6771 22.5649 15.9063L20.4816 19.5104C20.3878 19.6771 20.2107 19.7708 20.0336 19.7708C19.9711 19.7708 19.9086 19.7604 19.8461 19.7396L17.2524 18.6979C16.7107 19.1042 16.1274 19.4583 15.492 19.7188L15.0961 22.4792C15.0649 22.7292 14.8461 22.9167 14.5857 22.9167H10.4191C10.1586 22.9167 9.9399 22.7292 9.90865 22.4792L9.51281 19.7188C8.8774 19.4583 8.29406 19.1146 7.7524 18.6979L5.15865 19.7396C5.10656 19.7604 5.04406 19.7708 4.98156 19.7708C4.79406 19.7708 4.61698 19.6771 4.52323 19.5104L2.4399 15.9063C2.3149 15.6771 2.36698 15.3958 2.5649 15.2396L4.76281 13.5208C4.72115 13.1875 4.6899 12.8438 4.6899 12.5C4.6899 12.1563 4.72115 11.8125 4.76281 11.4792L2.5649 9.76043C2.36698 9.60418 2.30448 9.32293 2.4399 9.09376L4.52323 5.48959C4.61698 5.32293 4.79406 5.22918 4.97115 5.22918C5.03365 5.22918 5.09615 5.23959 5.15865 5.26043L7.7524 6.30209C8.29406 5.89584 8.8774 5.54168 9.51281 5.28126L9.90865 2.52084C9.9399 2.27084 10.1586 2.08334 10.4191 2.08334H14.5857C14.8461 2.08334 15.0649 2.27084 15.0961 2.52084L15.492 5.28126C16.1274 5.54168 16.7107 5.88543 17.2524 6.30209L19.8461 5.26043C19.8982 5.23959 19.9607 5.22918 20.0232 5.22918C20.2107 5.22918 20.3878 5.32293 20.4816 5.48959L22.5649 9.09376C22.6899 9.32293 22.6378 9.60418 22.4399 9.76043L20.242 11.4792C20.2836 11.8125 20.3149 12.1458 20.3149 12.5ZM18.2316 12.5C18.2316 12.2813 18.2211 12.0625 18.1795 11.7396L18.0336 10.5625L18.9607 9.83334L20.0753 8.94793L19.3461 7.68751L18.0232 8.21876L16.9191 8.66668L15.9711 7.93751C15.5545 7.62501 15.1378 7.38543 14.6899 7.19793L13.5857 6.75001L13.4191 5.57293L13.2211 4.16668H11.7732L11.5649 5.57293L11.3982 6.75001L10.2941 7.19793C9.86698 7.37501 9.4399 7.62501 8.99198 7.95834L8.05448 8.66668L6.97115 8.22918L5.64823 7.69793L4.91906 8.95834L6.04406 9.83334L6.97115 10.5625L6.82531 11.7396C6.79406 12.0521 6.77323 12.2917 6.77323 12.5C6.77323 12.7083 6.79406 12.9479 6.82531 13.2708L6.97115 14.4479L6.04406 15.1771L4.91906 16.0521L5.64823 17.3125L6.97115 16.7813L8.07531 16.3333L9.02323 17.0625C9.4399 17.375 9.85656 17.6146 10.3045 17.8021L11.4086 18.25L11.5753 19.4271L11.7732 20.8333H13.2316L13.4399 19.4271L13.6066 18.25L14.7107 17.8021C15.1378 17.625 15.5649 17.375 16.0128 17.0417L16.9503 16.3333L18.0336 16.7708L19.3566 17.3021L20.0857 16.0417L18.9607 15.1667L18.0336 14.4375L18.1795 13.2604C18.2107 12.9479 18.2316 12.7188 18.2316 12.5ZM12.5024 8.33334C10.2003 8.33334 8.33573 10.1979 8.33573 12.5C8.33573 14.8021 10.2003 16.6667 12.5024 16.6667C14.8045 16.6667 16.6691 14.8021 16.6691 12.5C16.6691 10.1979 14.8045 8.33334 12.5024 8.33334ZM10.4191 12.5C10.4191 13.6458 11.3566 14.5833 12.5024 14.5833C13.6482 14.5833 14.5857 13.6458 14.5857 12.5C14.5857 11.3542 13.6482 10.4167 12.5024 10.4167C11.3566 10.4167 10.4191 11.3542 10.4191 12.5Z" fill="#70B7C0"/>
</svg>
