<svg width="50" height="42" viewBox="0 0 50 42" fill="none" xmlns="http://www.w3.org/2000/svg">
<path d="M42.981 7.87686C41.0338 7.72735 38.8302 7.28497 36.4317 6.56222C33.5502 5.69366 30.7531 5.82775 28.1179 6.96046C27.7463 7.12022 27.5746 7.55098 27.7342 7.92266C27.894 8.29415 28.3243 8.46622 28.6965 8.30635C31.0061 7.31349 33.4666 7.19845 36.0091 7.96475C38.5086 8.71807 40.8166 9.17979 42.8689 9.33741C42.888 9.33897 42.907 9.33956 42.9258 9.33956C43.3049 9.33956 43.6258 9.04747 43.6552 8.66319C43.6862 8.25987 43.3843 7.90782 42.981 7.87686Z" fill="#BAFF99"/>
<path d="M42.9809 10.9897C41.0342 10.8403 38.8307 10.398 36.4317 9.67506C33.5502 8.8065 30.7531 8.94058 28.1179 10.0733C27.7463 10.2331 27.5746 10.6638 27.7342 11.0355C27.894 11.4071 28.3243 11.5791 28.6965 11.4192C31.0061 10.4263 33.4666 10.3113 36.0091 11.0776C38.5092 11.831 40.8171 12.2928 42.869 12.4502C42.8881 12.4518 42.907 12.4524 42.9258 12.4524C43.3049 12.4524 43.6258 12.1603 43.6552 11.7759C43.6862 11.3726 43.3843 11.0207 42.9809 10.9897Z" fill="#BAFF99"/>
<path d="M42.981 26.554C41.0337 26.4045 38.8301 25.9621 36.4317 25.2392C33.5504 24.3707 30.7534 24.5049 28.1179 25.6376C27.7463 25.7973 27.5746 26.2281 27.7342 26.5998C27.894 26.9713 28.3243 27.1433 28.6965 26.9835C31.0062 25.9906 33.4667 25.8757 36.0091 26.6418C38.5085 27.3951 40.8165 27.8569 42.8689 28.0145C42.888 28.0161 42.907 28.0167 42.9258 28.0167C43.3049 28.0167 43.6258 27.7246 43.6552 27.3403C43.6862 26.937 43.3843 26.5849 42.981 26.554Z" fill="#BAFF99"/>
<path d="M42.981 29.6667C41.0338 29.5172 38.8302 29.0748 36.4317 28.3521C33.5502 27.4836 30.7531 27.6176 28.1179 28.7503C27.7463 28.9101 27.5746 29.3408 27.7342 29.7125C27.894 30.0841 28.3243 30.2561 28.6965 30.0962C31.0061 29.1033 33.4666 28.9883 36.0091 29.7546C38.5086 30.5079 40.8166 30.9696 42.8689 31.1273C42.888 31.1288 42.907 31.1294 42.9258 31.1294C43.3049 31.1294 43.6258 30.8373 43.6552 30.453C43.6862 30.0497 43.3843 29.6977 42.981 29.6667Z" fill="#BAFF99"/>
<path d="M42.981 14.1026C41.0337 13.9531 38.8301 13.5107 36.4317 12.7879C33.5504 11.9194 30.7534 12.0534 28.1179 13.1862C27.7463 13.346 27.5746 13.7767 27.7342 14.1484C27.894 14.5199 28.3243 14.6919 28.6965 14.5321C31.0062 13.5392 33.4667 13.4243 36.0091 14.1904C38.5085 14.9437 40.8165 15.4055 42.8689 15.5632C42.888 15.5647 42.907 15.5653 42.9258 15.5653C43.3049 15.5653 43.6258 15.2732 43.6552 14.8889C43.6862 14.4856 43.3843 14.1336 42.981 14.1026Z" fill="#BAFF99"/>
<path d="M42.9809 20.3281C41.0342 20.1788 38.8307 19.7365 36.4317 19.0136C33.5504 18.145 30.7532 18.2791 28.1179 19.4118C27.7463 19.5716 27.5746 20.0024 27.7342 20.374C27.894 20.7456 28.3243 20.9176 28.6965 20.7577C31.006 19.765 33.4666 19.6499 36.0091 20.4161C38.5092 21.1695 40.8171 21.6314 42.869 21.7889C42.8881 21.7903 42.907 21.7909 42.9258 21.7909C43.3049 21.7909 43.6258 21.4988 43.6552 21.1145C43.6862 20.7111 43.3843 20.3592 42.9809 20.3281Z" fill="#BAFF99"/>
<path d="M42.981 17.2154C41.0338 17.0659 38.8302 16.6235 36.4317 15.9007C33.5505 15.0322 30.7532 15.1662 28.1179 16.299C27.7463 16.4587 27.5746 16.8895 27.7342 17.2612C27.894 17.6327 28.3243 17.8047 28.6965 17.6449C31.0064 16.652 33.4667 16.537 36.0091 17.3033C38.5086 18.0566 40.8166 18.5183 42.8689 18.6759C42.888 18.6775 42.907 18.6781 42.9258 18.6781C43.3049 18.6781 43.6258 18.386 43.6552 18.0017C43.6862 17.5984 43.3843 17.2463 42.981 17.2154Z" fill="#BAFF99"/>
<path d="M42.9809 23.4409C41.0339 23.2916 38.8303 22.8492 36.4317 22.1264C33.5504 21.2579 30.7534 21.3919 28.1179 22.5247C27.7463 22.6845 27.5746 23.1152 27.7342 23.4869C27.894 23.8584 28.3243 24.0304 28.6965 23.8706C31.0062 22.8777 33.4667 22.7629 36.0091 23.5289C38.5088 24.2823 40.8167 24.7441 42.869 24.9017C42.8881 24.9031 42.907 24.9037 42.9258 24.9037C43.3049 24.9037 43.6258 24.6116 43.6552 24.2272C43.6862 23.8239 43.3843 23.472 42.9809 23.4409Z" fill="#BAFF99"/>
<path d="M7.07412 9.33951C7.09287 9.33951 7.11191 9.33882 7.13096 9.33736C9.1834 9.17984 11.4913 8.71802 13.9908 7.9647C16.5333 7.19849 18.9937 7.31333 21.3034 8.3063C21.675 8.46607 22.1059 8.2942 22.2656 7.92261C22.4254 7.55093 22.2536 7.12017 21.8819 6.96041C19.2468 5.82759 16.4496 5.6937 13.5682 6.56216C11.1695 7.28492 8.96611 7.7273 7.01885 7.87681C6.61553 7.90767 6.31367 8.25982 6.34473 8.66314C6.37412 9.04742 6.69512 9.33951 7.07412 9.33951Z" fill="#BAFF99"/>
<path d="M7.07412 12.4523C7.09287 12.4523 7.11191 12.4516 7.13086 12.4502C9.18281 12.2928 11.4908 11.8309 13.9908 11.0775C16.5333 10.3113 18.9937 10.426 21.3034 11.4191C21.675 11.5788 22.1059 11.407 22.2656 11.0354C22.4254 10.6637 22.2536 10.233 21.8819 10.0732C19.2468 8.94041 16.4496 8.80662 13.5682 9.67497C11.1691 10.3979 8.96562 10.8402 7.01894 10.9896C6.61553 11.0205 6.31367 11.3725 6.34473 11.7759C6.37412 12.1602 6.69512 12.4523 7.07412 12.4523Z" fill="#BAFF99"/>
<path d="M7.07436 28.0166C7.09311 28.0166 7.11216 28.0159 7.1312 28.0144C9.18374 27.8569 11.4916 27.395 13.9911 26.6417C16.5336 25.8753 18.9939 25.9905 21.3037 26.9834C21.6752 27.1431 22.1061 26.9713 22.2659 26.5997C22.4256 26.228 22.2539 25.7973 21.8822 25.6375C19.247 24.5047 16.4499 24.3708 13.5684 25.2392C11.1699 25.962 8.96645 26.4044 7.01909 26.5539C6.61577 26.5848 6.31392 26.9369 6.34497 27.3402C6.37436 27.7245 6.69536 28.0166 7.07436 28.0166Z" fill="#BAFF99"/>
<path d="M7.07436 31.1294C7.09311 31.1294 7.11216 31.1288 7.1312 31.1273C9.18364 30.9698 11.4916 30.508 13.9911 29.7546C16.5335 28.9884 18.9939 29.1032 21.3037 30.0962C21.6752 30.2558 22.1061 30.0841 22.2659 29.7126C22.4256 29.3409 22.2539 28.9101 21.8822 28.7503C19.247 27.6175 16.4499 27.4837 13.5684 28.3521C11.1698 29.0749 8.96636 29.5172 7.01909 29.6668C6.61577 29.6976 6.31392 30.0498 6.34497 30.4531C6.37436 30.8374 6.69536 31.1294 7.07436 31.1294Z" fill="#BAFF99"/>
<path d="M7.07412 15.5652C7.09287 15.5652 7.11191 15.5645 7.13096 15.563C9.1835 15.4055 11.4914 14.9436 13.9908 14.1903C16.5334 13.4239 18.9937 13.5391 21.3034 14.532C21.675 14.6916 22.1059 14.5198 22.2656 14.1483C22.4254 13.7766 22.2536 13.3458 21.8819 13.1861C19.2468 12.0532 16.4496 11.9194 13.5682 12.7877C11.1696 13.5106 8.96621 13.9529 7.01885 14.1025C6.61553 14.1333 6.31367 14.4855 6.34473 14.8888C6.37412 15.2731 6.69512 15.5652 7.07412 15.5652Z" fill="#BAFF99"/>
<path d="M7.07436 21.7909C7.09311 21.7909 7.11216 21.7902 7.1311 21.7888C9.18306 21.6314 11.4911 21.1695 13.9911 20.4161C16.5335 19.6499 18.9939 19.7646 21.3037 20.7577C21.6752 20.9174 22.1061 20.7456 22.2659 20.374C22.4256 20.0023 22.2539 19.5716 21.8822 19.4118C19.2471 18.2791 16.45 18.1451 13.5684 19.0135C11.1694 19.7365 8.96587 20.1788 7.01919 20.3281C6.61577 20.3591 6.31392 20.7111 6.34497 21.1144C6.37436 21.4988 6.69536 21.7909 7.07436 21.7909Z" fill="#BAFF99"/>
<path d="M7.07436 18.6781C7.09311 18.6781 7.11216 18.6774 7.1312 18.6759C9.18364 18.5184 11.4916 18.0566 13.9911 17.3033C16.5334 16.5372 18.9938 16.6518 21.3037 17.6449C21.6752 17.8044 22.1061 17.6328 22.2659 17.2612C22.4256 16.8895 22.2539 16.4587 21.8822 16.299C19.2468 15.1662 16.4499 15.0321 13.5684 15.9007C11.1698 16.6235 8.96636 17.0659 7.01909 17.2154C6.61577 17.2462 6.31392 17.5984 6.34497 18.0017C6.37436 18.386 6.69536 18.6781 7.07436 18.6781Z" fill="#BAFF99"/>
<path d="M7.07436 24.9037C7.09311 24.9037 7.11216 24.903 7.1311 24.9017C9.18345 24.7442 11.4914 24.2823 13.9911 23.5289C16.5336 22.7625 18.9939 22.8777 21.3037 23.8706C21.6752 24.0304 22.1061 23.8585 22.2659 23.4869C22.4256 23.1152 22.2539 22.6845 21.8822 22.5247C19.247 21.3919 16.4499 21.2579 13.5684 22.1264C11.1698 22.8492 8.96616 23.2916 7.01919 23.4409C6.61577 23.4719 6.31392 23.8239 6.34497 24.2272C6.37436 24.6116 6.69536 24.9037 7.07436 24.9037Z" fill="#BAFF99"/>
<path d="M48.2112 5.11277H47.0646V4.4445C47.0646 3.50797 46.2657 2.76715 45.3301 2.84166C44.2493 2.92809 41.8828 2.93336 38.1755 1.99332C37.7832 1.89361 37.3848 2.13121 37.2856 2.5232C37.1861 2.91539 37.4234 3.31383 37.8155 3.41315C41.5317 4.35544 44.0169 4.41667 45.4471 4.30173C45.5304 4.29587 45.5997 4.36062 45.5997 4.4445V34.0009C42.8252 34.3002 39.119 33.506 36.4317 32.6962C30.4296 30.8873 26.5494 33.9951 25.7324 34.4378V5.1613C26.5238 4.41901 29.7136 1.7899 34.4609 2.55377C34.8601 2.61861 35.2361 2.34654 35.3005 1.94713C35.3649 1.54781 35.0933 1.17193 34.6939 1.10757C29.709 0.30444 26.2691 2.73941 24.9982 3.84831C22.0842 1.32114 17.916 0.19858 13.5683 1.50913C8.90201 2.91539 5.99007 2.94713 4.67005 2.84176C3.73313 2.76656 2.93556 3.50973 2.93556 4.4445V5.11277H1.78878C0.802446 5.11277 0 5.91512 0 6.90155V36.6032C0 37.5896 0.802544 38.392 1.78888 38.392H20.7661C21.0505 38.392 21.3084 38.5489 21.4233 38.7921C22.8448 41.7995 27.15 41.8105 28.5766 38.7921C28.6916 38.5491 28.9495 38.392 29.2339 38.392H48.2111C49.1975 38.392 49.9998 37.5895 49.9998 36.6032V22.713C49.9998 22.3084 49.672 21.9805 49.2674 21.9805C48.8628 21.9805 48.535 22.3084 48.535 22.713V36.6031C48.535 36.7817 48.3897 36.927 48.2111 36.927H29.234C28.3859 36.927 27.6082 37.4132 27.2524 38.166C26.3571 40.06 23.6463 40.0676 22.7477 38.1661C22.392 37.4134 21.6143 36.927 20.7661 36.927H1.78888C1.61017 36.927 1.46485 36.7817 1.46485 36.6031V6.90155C1.46485 6.72293 1.61017 6.57762 1.78878 6.57762H2.93556V34.626C2.93556 34.9584 3.1593 35.2491 3.48059 35.334C3.61985 35.371 6.97455 36.2134 13.9911 34.0988C17.3859 33.0757 20.6625 33.7031 23.2622 35.5364C24.2674 36.2451 25.6668 36.292 26.7381 35.5363C28.3082 34.4291 31.6 32.7703 36.0092 34.0988C43.026 36.2133 46.3804 35.3709 46.5197 35.334C46.841 35.2491 47.0647 34.9584 47.0647 34.626V6.57762H48.2113C48.3899 6.57762 48.5352 6.72293 48.5352 6.90155V19.295C48.5352 19.6996 48.8631 20.0274 49.2677 20.0274C49.6723 20.0274 50.0001 19.6996 50.0001 19.295V6.90155C50 5.91512 49.1976 5.11277 48.2112 5.11277ZM4.40042 4.4445C4.40042 4.36237 4.46751 4.29577 4.55296 4.30173C5.97582 4.41618 9.09449 4.38728 13.9911 2.91158C17.9566 1.71685 21.7451 2.79996 24.2676 5.16189V34.4378C23.8475 34.2104 19.7291 30.8393 13.5683 32.6963C13.1733 32.8154 12.7391 32.939 12.3374 33.0463C12.3325 33.0476 12.3276 33.049 12.3228 33.0502C9.96441 33.6793 6.82709 34.2626 4.40032 34.0013C4.40042 31.9656 4.40042 4.9904 4.40042 4.4445Z" fill="#BAFF99"/>
</svg>
