<svg width="100" height="106" viewBox="0 0 100 106" fill="none" xmlns="http://www.w3.org/2000/svg">
<g clip-path="url(#clip0)">
<path d="M64.981 22.8769C63.0338 22.7274 60.8302 22.285 58.4317 21.5622C55.5502 20.6937 52.7531 20.8278 50.1179 21.9605C49.7463 22.1202 49.5746 22.551 49.7342 22.9227C49.894 23.2942 50.3243 23.4662 50.6965 23.3064C53.0061 22.3135 55.4666 22.1985 58.0091 22.9648C60.5086 23.7181 62.8166 24.1798 64.8689 24.3374C64.888 24.339 64.907 24.3396 64.9258 24.3396C65.3049 24.3396 65.6258 24.0475 65.6552 23.6632C65.6862 23.2599 65.3843 22.9078 64.981 22.8769V22.8769Z" fill="#BAFF99"/>
<path d="M64.9809 25.9897C63.0342 25.8403 60.8307 25.398 58.4317 24.6751C55.5502 23.8065 52.7531 23.9406 50.1179 25.0733C49.7463 25.2331 49.5746 25.6638 49.7342 26.0355C49.894 26.4071 50.3243 26.5791 50.6965 26.4192C53.0061 25.4263 55.4666 25.3113 58.0091 26.0776C60.5092 26.831 62.8171 27.2928 64.869 27.4502C64.8881 27.4518 64.907 27.4524 64.9258 27.4524C65.3049 27.4524 65.6258 27.1603 65.6552 26.7759C65.6862 26.3726 65.3843 26.0207 64.9809 25.9897V25.9897Z" fill="#BAFF99"/>
<path d="M64.981 41.554C63.0337 41.4045 60.8301 40.9621 58.4317 40.2392C55.5504 39.3707 52.7534 39.5049 50.1179 40.6376C49.7463 40.7973 49.5746 41.2281 49.7342 41.5998C49.894 41.9713 50.3243 42.1433 50.6965 41.9835C53.0062 40.9906 55.4667 40.8757 58.0091 41.6418C60.5085 42.3951 62.8165 42.8569 64.8689 43.0145C64.888 43.0161 64.907 43.0167 64.9258 43.0167C65.3049 43.0167 65.6258 42.7246 65.6552 42.3403C65.6862 41.937 65.3843 41.5849 64.981 41.554V41.554Z" fill="#BAFF99"/>
<path d="M64.981 44.6667C63.0338 44.5172 60.8302 44.0748 58.4317 43.3521C55.5502 42.4836 52.7531 42.6176 50.1179 43.7503C49.7463 43.9101 49.5746 44.3408 49.7342 44.7125C49.894 45.0841 50.3243 45.2561 50.6965 45.0962C53.0061 44.1033 55.4666 43.9883 58.0091 44.7546C60.5086 45.5079 62.8166 45.9696 64.8689 46.1273C64.888 46.1288 64.907 46.1294 64.9258 46.1294C65.3049 46.1294 65.6258 45.8373 65.6552 45.453C65.6862 45.0497 65.3843 44.6977 64.981 44.6667V44.6667Z" fill="#BAFF99"/>
<path d="M64.981 29.1026C63.0337 28.9531 60.8301 28.5107 58.4317 27.7879C55.5504 26.9194 52.7534 27.0534 50.1179 28.1862C49.7463 28.346 49.5746 28.7767 49.7342 29.1484C49.894 29.5199 50.3243 29.6919 50.6965 29.5321C53.0062 28.5392 55.4667 28.4243 58.0091 29.1904C60.5085 29.9437 62.8165 30.4055 64.8689 30.5632C64.888 30.5647 64.907 30.5653 64.9258 30.5653C65.3049 30.5653 65.6258 30.2732 65.6552 29.8889C65.6862 29.4856 65.3843 29.1336 64.981 29.1026V29.1026Z" fill="#BAFF99"/>
<path d="M64.9809 35.3281C63.0342 35.1788 60.8307 34.7365 58.4317 34.0136C55.5504 33.145 52.7532 33.2791 50.1179 34.4118C49.7463 34.5716 49.5746 35.0024 49.7342 35.374C49.894 35.7456 50.3243 35.9176 50.6965 35.7577C53.006 34.765 55.4666 34.6499 58.0091 35.4161C60.5092 36.1695 62.8171 36.6314 64.869 36.7889C64.8881 36.7903 64.907 36.7909 64.9258 36.7909C65.3049 36.7909 65.6258 36.4988 65.6552 36.1145C65.6862 35.7111 65.3843 35.3592 64.9809 35.3281V35.3281Z" fill="#BAFF99"/>
<path d="M64.981 32.2154C63.0338 32.0659 60.8302 31.6235 58.4317 30.9007C55.5505 30.0322 52.7532 30.1662 50.1179 31.299C49.7463 31.4587 49.5746 31.8895 49.7342 32.2612C49.894 32.6327 50.3243 32.8047 50.6965 32.6449C53.0064 31.652 55.4667 31.537 58.0091 32.3033C60.5086 33.0566 62.8166 33.5183 64.8689 33.6759C64.888 33.6775 64.907 33.6781 64.9258 33.6781C65.3049 33.6781 65.6258 33.386 65.6552 33.0017C65.6862 32.5984 65.3843 32.2463 64.981 32.2154V32.2154Z" fill="#BAFF99"/>
<path d="M64.9809 38.4409C63.0339 38.2916 60.8303 37.8492 58.4317 37.1264C55.5504 36.2579 52.7534 36.3919 50.1179 37.5247C49.7463 37.6845 49.5746 38.1152 49.7342 38.4869C49.894 38.8584 50.3243 39.0304 50.6965 38.8706C53.0062 37.8777 55.4667 37.7629 58.0091 38.5289C60.5088 39.2823 62.8167 39.7441 64.869 39.9017C64.8881 39.9031 64.907 39.9037 64.9258 39.9037C65.3049 39.9037 65.6258 39.6116 65.6552 39.2272C65.6862 38.8239 65.3843 38.472 64.9809 38.4409V38.4409Z" fill="#BAFF99"/>
<path d="M29.0741 24.3395C29.0929 24.3395 29.1119 24.3388 29.131 24.3374C31.1834 24.1798 33.4913 23.718 35.9908 22.9647C38.5333 22.1985 40.9937 22.3133 43.3034 23.3063C43.675 23.4661 44.1059 23.2942 44.2656 22.9226C44.4254 22.5509 44.2536 22.1202 43.8819 21.9604C41.2468 20.8276 38.4496 20.6937 35.5682 21.5622C33.1695 22.2849 30.9661 22.7273 29.0188 22.8768C28.6155 22.9077 28.3137 23.2598 28.3447 23.6631C28.3741 24.0474 28.6951 24.3395 29.0741 24.3395V24.3395Z" fill="#BAFF99"/>
<path d="M29.0741 27.4523C29.0929 27.4523 29.1119 27.4516 29.1309 27.4502C31.1828 27.2928 33.4908 26.8309 35.9908 26.0775C38.5333 25.3113 40.9937 25.426 43.3034 26.4191C43.675 26.5788 44.1059 26.407 44.2656 26.0354C44.4254 25.6637 44.2536 25.233 43.8819 25.0732C41.2468 23.9404 38.4496 23.8066 35.5682 24.675C33.1691 25.3979 30.9656 25.8402 29.0189 25.9896C28.6155 26.0205 28.3137 26.3725 28.3447 26.7759C28.3741 27.1602 28.6951 27.4523 29.0741 27.4523V27.4523Z" fill="#BAFF99"/>
<path d="M29.0744 43.0166C29.0931 43.0166 29.1122 43.0159 29.1312 43.0145C31.1837 42.8569 33.4916 42.395 35.9911 41.6417C38.5336 40.8753 40.9939 40.9905 43.3037 41.9834C43.6752 42.1431 44.1061 41.9713 44.2659 41.5997C44.4256 41.228 44.2539 40.7973 43.8822 40.6375C41.247 39.5047 38.4499 39.3708 35.5684 40.2392C33.1699 40.962 30.9665 41.4044 29.0191 41.5539C28.6158 41.5848 28.3139 41.9369 28.345 42.3402C28.3744 42.7245 28.6954 43.0166 29.0744 43.0166V43.0166Z" fill="#BAFF99"/>
<path d="M29.0744 46.1294C29.0931 46.1294 29.1122 46.1288 29.1312 46.1273C31.1836 45.9698 33.4916 45.508 35.9911 44.7546C38.5335 43.9884 40.9939 44.1032 43.3037 45.0962C43.6752 45.2558 44.1061 45.0841 44.2659 44.7125C44.4256 44.3409 44.2539 43.9101 43.8822 43.7503C41.247 42.6175 38.4499 42.4836 35.5684 43.3521C33.1698 44.0749 30.9664 44.5172 29.0191 44.6667C28.6158 44.6976 28.3139 45.0498 28.345 45.4531C28.3744 45.8373 28.6954 46.1294 29.0744 46.1294V46.1294Z" fill="#BAFF99"/>
<path d="M29.0741 30.5651C29.0929 30.5651 29.1119 30.5645 29.131 30.563C31.1835 30.4055 33.4914 29.9436 35.9908 29.1902C38.5334 28.4239 40.9937 28.5391 43.3034 29.5319C43.675 29.6916 44.1059 29.5198 44.2656 29.1483C44.4254 28.7766 44.2536 28.3458 43.8819 28.186C41.2468 27.0532 38.4496 26.9193 35.5682 27.7877C33.1696 28.5106 30.9662 28.9529 29.0188 29.1025C28.6155 29.1333 28.3137 29.4855 28.3447 29.8888C28.3741 30.2731 28.6951 30.5651 29.0741 30.5651V30.5651Z" fill="#BAFF99"/>
<path d="M29.0744 36.7909C29.0931 36.7909 29.1122 36.7902 29.1311 36.7888C31.1831 36.6314 33.4911 36.1695 35.9911 35.4161C38.5335 34.6499 40.9939 34.7646 43.3037 35.7577C43.6752 35.9174 44.1061 35.7456 44.2659 35.374C44.4256 35.0023 44.2539 34.5716 43.8822 34.4118C41.2471 33.2791 38.45 33.1451 35.5684 34.0135C33.1694 34.7365 30.9659 35.1788 29.0192 35.3281C28.6158 35.3591 28.3139 35.7111 28.345 36.1144C28.3744 36.4988 28.6954 36.7909 29.0744 36.7909V36.7909Z" fill="#BAFF99"/>
<path d="M29.0744 33.6781C29.0931 33.6781 29.1122 33.6774 29.1312 33.6759C31.1836 33.5184 33.4916 33.0566 35.9911 32.3033C38.5334 31.5372 40.9938 31.6518 43.3037 32.6449C43.6752 32.8044 44.1061 32.6328 44.2659 32.2612C44.4256 31.8895 44.2539 31.4587 43.8822 31.299C41.2468 30.1662 38.4499 30.0321 35.5684 30.9007C33.1698 31.6235 30.9664 32.0659 29.0191 32.2154C28.6158 32.2462 28.3139 32.5984 28.345 33.0017C28.3744 33.386 28.6954 33.6781 29.0744 33.6781V33.6781Z" fill="#BAFF99"/>
<path d="M29.0744 39.9037C29.0931 39.9037 29.1122 39.903 29.1311 39.9017C31.1834 39.7442 33.4914 39.2823 35.9911 38.5289C38.5336 37.7625 40.9939 37.8777 43.3037 38.8706C43.6752 39.0304 44.1061 38.8585 44.2659 38.4869C44.4256 38.1152 44.2539 37.6845 43.8822 37.5247C41.247 36.3919 38.4499 36.2579 35.5684 37.1264C33.1698 37.8492 30.9662 38.2916 29.0192 38.4409C28.6158 38.4719 28.3139 38.8239 28.345 39.2272C28.3744 39.6116 28.6954 39.9037 29.0744 39.9037V39.9037Z" fill="#BAFF99"/>
<path d="M70.2112 20.1128H69.0646V19.4445C69.0646 18.508 68.2657 17.7671 67.3301 17.8417C66.2493 17.9281 63.8828 17.9334 60.1755 16.9933C59.7832 16.8936 59.3848 17.1312 59.2856 17.5232C59.1861 17.9154 59.4234 18.3138 59.8155 18.4131C63.5317 19.3554 66.0169 19.4167 67.4471 19.3017C67.5304 19.2959 67.5997 19.3606 67.5997 19.4445V49.0009C64.8253 49.3002 61.119 48.506 58.4317 47.6962C52.4296 45.8873 48.5494 48.9951 47.7324 49.4378V20.1613C48.5238 19.419 51.7136 16.7899 56.4609 17.5538C56.8601 17.6186 57.2361 17.3465 57.3005 16.9471C57.3649 16.5478 57.0933 16.1719 56.6939 16.1076C51.709 15.3044 48.2691 17.7394 46.9982 18.8483C44.0842 16.3211 39.916 15.1986 35.5683 16.5091C30.902 17.9154 27.9901 17.9471 26.67 17.8418C25.7331 17.7666 24.9356 18.5097 24.9356 19.4445V20.1128H23.7888C22.8024 20.1128 22 20.9151 22 21.9015V51.6032C22 52.5896 22.8025 53.392 23.7889 53.392H42.7661C43.0505 53.392 43.3084 53.5489 43.4233 53.7921C44.8448 56.7995 49.15 56.8105 50.5766 53.7921C50.6916 53.5491 50.9495 53.392 51.2339 53.392H70.2111C71.1975 53.392 71.9998 52.5895 71.9998 51.6032V37.713C71.9998 37.3084 71.672 36.9805 71.2674 36.9805C70.8628 36.9805 70.535 37.3084 70.535 37.713V51.6031C70.535 51.7817 70.3897 51.927 70.2111 51.927H51.234C50.3859 51.927 49.6082 52.4133 49.2524 53.166C48.3571 55.06 45.6463 55.0676 44.7477 53.1661C44.392 52.4134 43.6143 51.927 42.7661 51.927H23.7889C23.6102 51.927 23.4649 51.7817 23.4649 51.6031V21.9015C23.4649 21.7229 23.6102 21.5776 23.7888 21.5776H24.9356V49.626C24.9356 49.9584 25.1593 50.2491 25.4806 50.334C25.6198 50.371 28.9746 51.2134 35.9911 49.0988C39.3859 48.0757 42.6625 48.7031 45.2622 50.5364C46.2674 51.2451 47.6668 51.292 48.7381 50.5363C50.3082 49.4291 53.6 47.7703 58.0092 49.0988C65.026 51.2133 68.3804 50.3709 68.5197 50.334C68.841 50.2491 69.0647 49.9584 69.0647 49.626V21.5776H70.2113C70.3899 21.5776 70.5352 21.7229 70.5352 21.9015V34.295C70.5352 34.6996 70.8631 35.0274 71.2677 35.0274C71.6723 35.0274 72.0001 34.6996 72.0001 34.295V21.9015C72 20.9151 71.1976 20.1128 70.2112 20.1128V20.1128ZM26.4004 19.4445C26.4004 19.3624 26.4675 19.2958 26.553 19.3017C27.9758 19.4162 31.0945 19.3873 35.9911 17.9116C39.9566 16.7169 43.7451 17.8 46.2676 20.1619V49.4378C45.8475 49.2104 41.7291 45.8393 35.5683 47.6963C35.1733 47.8154 34.7391 47.939 34.3374 48.0463C34.3325 48.0476 34.3276 48.049 34.3228 48.0502C31.9644 48.6793 28.8271 49.2626 26.4003 49.0013C26.4004 46.9656 26.4004 19.9904 26.4004 19.4445V19.4445Z" fill="#BAFF99"/>
</g>
<path d="M23.8123 88.04C24.1589 88.56 24.5989 88.9467 25.1323 89.2C25.6789 89.44 26.2389 89.56 26.8123 89.56C27.1323 89.56 27.4589 89.5133 27.7923 89.42C28.1256 89.3133 28.4256 89.16 28.6923 88.96C28.9723 88.76 29.1989 88.5133 29.3723 88.22C29.5456 87.9267 29.6323 87.5867 29.6323 87.2C29.6323 86.6533 29.4589 86.24 29.1123 85.96C28.7656 85.6667 28.3323 85.4267 27.8123 85.24C27.3056 85.04 26.7456 84.8533 26.1323 84.68C25.5323 84.4933 24.9723 84.24 24.4523 83.92C23.9456 83.6 23.5189 83.1733 23.1723 82.64C22.8256 82.0933 22.6523 81.36 22.6523 80.44C22.6523 80.0267 22.7389 79.5867 22.9123 79.12C23.0989 78.6533 23.3856 78.2267 23.7723 77.84C24.1589 77.4533 24.6523 77.1333 25.2523 76.88C25.8656 76.6133 26.5989 76.48 27.4523 76.48C28.2256 76.48 28.9656 76.5867 29.6723 76.8C30.3789 77.0133 30.9989 77.4467 31.5323 78.1L29.9723 79.52C29.7323 79.1467 29.3923 78.8467 28.9523 78.62C28.5123 78.3933 28.0123 78.28 27.4523 78.28C26.9189 78.28 26.4723 78.3533 26.1123 78.5C25.7656 78.6333 25.4856 78.8133 25.2723 79.04C25.0589 79.2533 24.9056 79.4867 24.8123 79.74C24.7323 79.9933 24.6923 80.2267 24.6923 80.44C24.6923 81.04 24.8656 81.5 25.2123 81.82C25.5589 82.14 25.9856 82.4 26.4923 82.6C27.0123 82.8 27.5723 82.98 28.1723 83.14C28.7856 83.3 29.3456 83.5267 29.8523 83.82C30.3723 84.1 30.8056 84.4867 31.1523 84.98C31.4989 85.46 31.6723 86.1267 31.6723 86.98C31.6723 87.66 31.5389 88.2733 31.2723 88.82C31.0189 89.3667 30.6723 89.8267 30.2323 90.2C29.7923 90.5733 29.2723 90.86 28.6723 91.06C28.0723 91.26 27.4323 91.36 26.7523 91.36C25.8456 91.36 24.9856 91.2 24.1723 90.88C23.3589 90.56 22.7123 90.0667 22.2323 89.4L23.8123 88.04ZM39.1255 83.08H36.5455V87.38C36.5455 87.6467 36.5522 87.9133 36.5655 88.18C36.5789 88.4333 36.6255 88.6667 36.7055 88.88C36.7989 89.08 36.9322 89.2467 37.1055 89.38C37.2922 89.5 37.5589 89.56 37.9055 89.56C38.1189 89.56 38.3389 89.54 38.5655 89.5C38.7922 89.46 38.9989 89.3867 39.1855 89.28V90.92C38.9722 91.04 38.6922 91.12 38.3455 91.16C38.0122 91.2133 37.7522 91.24 37.5655 91.24C36.8722 91.24 36.3322 91.1467 35.9455 90.96C35.5722 90.76 35.2922 90.5067 35.1055 90.2C34.9322 89.8933 34.8255 89.5533 34.7855 89.18C34.7589 88.7933 34.7455 88.4067 34.7455 88.02V83.08H32.6655V81.52H34.7455V78.86H36.5455V81.52H39.1255V83.08ZM49.8479 91H48.0479V89.54H48.0079C47.7812 90.0467 47.3879 90.46 46.8279 90.78C46.2679 91.0867 45.6212 91.24 44.8879 91.24C44.4212 91.24 43.9812 91.1667 43.5679 91.02C43.1546 90.8867 42.7879 90.6733 42.4679 90.38C42.1612 90.0867 41.9146 89.7133 41.7279 89.26C41.5412 88.7933 41.4479 88.2467 41.4479 87.62V81.52H43.2479V87.12C43.2479 87.56 43.3079 87.94 43.4279 88.26C43.5479 88.5667 43.7079 88.82 43.9079 89.02C44.1079 89.2067 44.3346 89.3467 44.5879 89.44C44.8546 89.52 45.1279 89.56 45.4079 89.56C45.7812 89.56 46.1279 89.5 46.4479 89.38C46.7679 89.26 47.0479 89.0733 47.2879 88.82C47.5279 88.5533 47.7146 88.22 47.8479 87.82C47.9812 87.42 48.0479 86.9467 48.0479 86.4V81.52H49.8479V91ZM62.0612 91H60.2612V89.64H60.2212C59.8745 90.1467 59.3945 90.54 58.7812 90.82C58.1812 91.1 57.5612 91.24 56.9212 91.24C56.1878 91.24 55.5212 91.1133 54.9212 90.86C54.3345 90.6067 53.8278 90.2533 53.4012 89.8C52.9878 89.3467 52.6678 88.82 52.4412 88.22C52.2145 87.62 52.1012 86.9667 52.1012 86.26C52.1012 85.5533 52.2145 84.9 52.4412 84.3C52.6678 83.6867 52.9878 83.16 53.4012 82.72C53.8278 82.2667 54.3345 81.9133 54.9212 81.66C55.5212 81.4067 56.1878 81.28 56.9212 81.28C57.6012 81.28 58.2412 81.4267 58.8412 81.72C59.4412 82 59.9012 82.3867 60.2212 82.88H60.2612V75.88H62.0612V91ZM57.1412 89.56C57.6212 89.56 58.0545 89.48 58.4412 89.32C58.8278 89.1467 59.1545 88.92 59.4212 88.64C59.6878 88.3467 59.8945 88 60.0412 87.6C60.1878 87.1867 60.2612 86.74 60.2612 86.26C60.2612 85.78 60.1878 85.34 60.0412 84.94C59.8945 84.5267 59.6878 84.18 59.4212 83.9C59.1545 83.6067 58.8278 83.38 58.4412 83.22C58.0545 83.0467 57.6212 82.96 57.1412 82.96C56.6612 82.96 56.2278 83.0467 55.8412 83.22C55.4545 83.38 55.1278 83.6067 54.8612 83.9C54.5945 84.18 54.3878 84.5267 54.2412 84.94C54.0945 85.34 54.0212 85.78 54.0212 86.26C54.0212 86.74 54.0945 87.1867 54.2412 87.6C54.3878 88 54.5945 88.3467 54.8612 88.64C55.1278 88.92 55.4545 89.1467 55.8412 89.32C56.2278 89.48 56.6612 89.56 57.1412 89.56ZM63.6477 81.52H65.7277L68.5477 88.92H68.5877L71.2677 81.52H73.2077L68.7077 93.04C68.5477 93.4533 68.3811 93.8267 68.2077 94.16C68.0344 94.5067 67.8277 94.8 67.5877 95.04C67.3477 95.28 67.0544 95.4667 66.7077 95.6C66.3744 95.7333 65.9611 95.8 65.4677 95.8C65.2011 95.8 64.9277 95.78 64.6477 95.74C64.3811 95.7133 64.1211 95.6467 63.8677 95.54L64.0877 93.9C64.4477 94.0467 64.8077 94.12 65.1677 94.12C65.4477 94.12 65.6811 94.08 65.8677 94C66.0677 93.9333 66.2344 93.8267 66.3677 93.68C66.5144 93.5467 66.6344 93.3867 66.7277 93.2C66.8211 93.0133 66.9144 92.8 67.0077 92.56L67.5877 91.06L63.6477 81.52Z" fill="#BAFF99"/>
<path d="M5 1.5H95C96.933 1.5 98.5 3.067 98.5 5V101C98.5 102.933 96.933 104.5 95 104.5H5C3.067 104.5 1.5 102.933 1.5 101V5C1.5 3.067 3.067 1.5 5 1.5Z" stroke="#BAFF99" stroke-width="3"/>
<defs>
<clipPath id="clip0">
<rect width="50" height="50" fill="white" transform="translate(22 11)"/>
</clipPath>
</defs>
</svg>
